Coordinates
nRows=111
nColumns=2
inDegrees=yes
endheader
time	ankle_angle_r	
2.43347	 -5.281528	
2.50504	 -5.264282	
2.57661	 -5.292397	
2.64819	 -5.294800	
2.71976	 -5.157471	
2.79133	 -5.160497	
2.8629	 -5.135743	
2.93448	 -5.203247	
3.00605	 -5.161121	
3.07762	 -5.260424	
3.14919	 -5.305992	
3.22077	 -5.268557	
3.29234	 -5.273248	
3.36391	 -5.268973	
3.43548	 -5.320419	
3.50706	 -5.274496	
3.57863	 -5.239079	
3.6502	 -5.304536	
3.72177	 -5.294800	
3.79335	 -5.285480	
3.86492	 -5.264282	
3.93649	 -5.307509	
4.00806	 -5.307926	
4.07964	 -5.186271	
4.15121	 -5.225485	
4.22278	 -5.172729	
4.29435	 -5.203247	
4.36593	 -5.134556	
4.4375	 -5.157107	
4.50907	 -5.218506	
4.58065	 -5.256055	
4.65222	 -5.225329	
4.72379	 -5.270898	
4.79536	 -5.325317	
4.86694	 -5.258082	
4.93851	 -5.187988	
5.01008	 -5.108003	
5.08165	 -5.121377	
5.15323	 -5.177253	
5.2248	 -5.137053	
5.29637	 -5.289848	
5.36794	 -5.250052	
5.43952	 -5.168194	
5.51109	 -5.268610	
5.58266	 -5.233765	
5.65423	 -5.249023	
5.72581	 -5.252727	
5.79738	 -5.294800	
5.86895	 -5.337289	
5.94052	 -5.221585	
6.0121	 -5.279541	
6.08367	 -5.271551	
6.15524	 -5.299710	
6.22681	 -5.170482	
6.29839	 -5.176808	
6.36996	 -5.205078	
6.44153	 -5.220129	
6.5131	 -5.175560	
6.58468	 -5.172729	
6.65625	 -5.188987	
6.72782	 -5.141421	
6.7994	 -5.081177	
6.87097	 -5.127328	
6.94254	 -5.142045	
7.01411	 -5.111776	
7.08569	 -5.111196	
7.15726	 -5.142212	
7.22883	 -5.187988	
7.3004	 -5.204120	
7.37198	 -5.250104	
7.44355	 -5.201958	
7.51512	 -5.189486	
7.58669	 -5.174435	
7.65827	 -5.159384	
7.72984	 -5.218506	
7.80141	 -5.216177	
7.87298	 -5.218506	
7.94456	 -5.218506	
8.01613	 -5.178636	
8.0877	 -5.126953	
8.15927	 -5.249023	
8.23085	 -5.294800	
8.30242	 -5.260497	
8.37399	 -5.268276	
8.44556	 -5.255879	
8.51714	 -5.314468	
8.58871	 -5.273517	
8.66028	 -5.249023	
8.73185	 -5.299992	
8.80343	 -5.294800	
8.875	 -5.294800	
8.94657	 -5.273883	
9.01815	 -5.315924	
9.08972	 -5.310059	
9.16129	 -5.261587	
9.23286	 -5.286031	
9.30444	 -5.279541	
9.37601	 -5.310059	
9.44758	 -5.211392	
9.51915	 -5.272219	
9.59073	 -5.378823	
9.6623	 -5.318013	
9.73387	 -5.302113	
9.80544	 -5.278492	
9.87702	 -5.316956	
9.94859	 -5.240454	
10.0202	 -5.144509	
10.0917	 -5.117967	
10.1633	 -5.120888	
10.2349	 -5.050659	
10.3065	 -5.085138	
